<svg xmlns="http://www.w3.org/2000/svg" viewBox="0 0 135.21 34"><defs><style>.cls-1{fill:#fcc716;}</style></defs><g id="Capa_2" data-name="Capa 2"><g id="Capa_1-2" data-name="Capa 1"><rect class="cls-1" width="135.21" height="34"/><path d="M88.23,14.23,91.6,18l-3.37,2.37Zm-.74-.08c-.53.24-1.39.56-2.2.85v7.5a5.56,5.56,0,0,1-.14,1.63,1.29,1.29,0,0,1-.59.64v.32a19.1,19.1,0,0,1,2.4.62,18,18,0,0,1,2.22,1l4.4-3.06-.28-.39-1.9,1.3-3.16-1.27V20.94l5.82-4.09-3.61-4.22C89,13.36,87.87,14,87.49,14.15Z"/><path d="M108.55,12.63l3.44,2-1.55,2.29-2.87-1.68v8.17l2.69,1.23,1.39-1L112,24l-3.75,2.74A17.08,17.08,0,0,0,106,25.68a13.9,13.9,0,0,0-2.2-.57V24.8a1.57,1.57,0,0,0,.59-.66,4.66,4.66,0,0,0,.2-1.57V15.25A10.14,10.14,0,0,0,108.55,12.63Z"/><path d="M124.17,15.33c.44.16,1,.41,2.08.89v8.25l-3-1.27V15A3.63,3.63,0,0,1,124.17,15.33Zm.63-2.7a13,13,0,0,1-4.48,2.52v7.37a4.23,4.23,0,0,1-.18,1.47,2,2,0,0,1-.62.74l.13.26a7,7,0,0,1,2.09.38,14.4,14.4,0,0,1,2.9,1.4,10.43,10.43,0,0,1,1.59-1.12,27.22,27.22,0,0,1,3-1.38V14.4A13.61,13.61,0,0,1,124.8,12.63Z"/><path d="M58.1,15.33c.44.16,1,.41,2.07.89v8.25l-3-1.27V15A3.87,3.87,0,0,1,58.1,15.33Zm.62-2.7a12.93,12.93,0,0,1-4.48,2.52v7.37A4.23,4.23,0,0,1,54.06,24a2,2,0,0,1-.61.74l.12.26a7,7,0,0,1,2.09.38,14.4,14.4,0,0,1,2.9,1.4,10.43,10.43,0,0,1,1.59-1.12,28.15,28.15,0,0,1,3-1.38V14.4A13.7,13.7,0,0,1,58.72,12.63Z"/><path d="M30.4,24l-.73.58L28.11,23.4v-13l1.06-1.05L26.62,7.23,24.09,9.34l1.06,1.05V21.66c0,1,0,1.44,0,1.54a2.25,2.25,0,0,1-.28.78,1.58,1.58,0,0,1-.56.56v.18a8.48,8.48,0,0,1,1.7.7,12.43,12.43,0,0,1,1.75,1.35l3-2.31Z"/><path d="M52.9,21.3l-.31.27a11.08,11.08,0,0,1-3.22,1.87,8.55,8.55,0,0,1-3.3.62h-.62v-14a5.34,5.34,0,0,0,2.9.82c1.68,0,3.2-1.17,4.39-2.91l-.45-.25a2.69,2.69,0,0,1-2.15,1.13,7.4,7.4,0,0,1-3.7-1.53l-5.83,4.86V18a8.26,8.26,0,0,1-.14,2.29,3,3,0,0,1-.61.78,7.87,7.87,0,0,1-1.74-4.89,7.43,7.43,0,0,1,1.18-4A9.68,9.68,0,0,1,42,9.3l.17-.11-.32-.34-.15.09a14.36,14.36,0,0,0-4.38,3.51,9,9,0,0,0-1.7,5.26,9.25,9.25,0,0,0,1.2,4.47,8.39,8.39,0,0,0,3.34,3.34,9.34,9.34,0,0,0,4.53,1.16,10.16,10.16,0,0,0,3.26-.56,8.93,8.93,0,0,0,2.81-1.48A9.79,9.79,0,0,0,53,22l.27-.42Zm-8,2.66a7.85,7.85,0,0,1-2.54-.77,7.67,7.67,0,0,1-2.14-1.71A22.88,22.88,0,0,0,42.8,19a2.8,2.8,0,0,0,.63-1.08,6,6,0,0,0,.12-1.5V10.64l1.32-1.12Z"/><path d="M101.59,12.64l-2.88,2.51a1.73,1.73,0,0,0-.35-1,7.46,7.46,0,0,0-1.58-1.48l-3,2.52.33.39A1.61,1.61,0,0,1,95,15a.63.63,0,0,1,.49.33,2.54,2.54,0,0,1,.22,1.31v5.42a4.42,4.42,0,0,1-.17,1.54,1.94,1.94,0,0,1-.74.8v.28a8.76,8.76,0,0,1,1.74.74,12.44,12.44,0,0,1,1.76,1.35l3.07-2.34L101,24l-.72.58L98.71,23.4V15.79l.94-.85c.67.85,1.13,1.37,1.88,1.37,1.28,0,3.06-2,3.06-2l-.23-.29C103.17,15.08,102.24,13.24,101.59,12.64Z"/><path d="M23.29,21.33l-.31.28a11.56,11.56,0,0,1-3.22,1.87,8.55,8.55,0,0,1-3.3.61h-.62V17.85a3.6,3.6,0,0,0,1.1.2c1.46,0,3-1.48,4-3l-.45-.26a2.22,2.22,0,0,1-1.77,1,5.78,5.78,0,0,1-2.86-1.12V10.11a5.42,5.42,0,0,0,2.9.81c1.68,0,3.2-1.17,4.39-2.91l-.45-.25A2.67,2.67,0,0,1,20.53,8.9a7.4,7.4,0,0,1-3.7-1.53L11,12.22V18a8.2,8.2,0,0,1-.14,2.29,2.81,2.81,0,0,1-.61.78,7.86,7.86,0,0,1-1.74-4.88,7.4,7.4,0,0,1,1.18-4,9.56,9.56,0,0,1,2.68-2.86l.17-.12-.32-.34L12.07,9a14.36,14.36,0,0,0-4.38,3.51A9,9,0,0,0,6,17.74a9.22,9.22,0,0,0,1.2,4.47,8.32,8.32,0,0,0,3.34,3.34,9.34,9.34,0,0,0,4.53,1.16,10.14,10.14,0,0,0,3.26-.55,9.15,9.15,0,0,0,2.81-1.49A9.89,9.89,0,0,0,23.35,22l.27-.43Zm-8-11.78v5.24l-1.32,1.1V10.68ZM12.72,23.22a7.36,7.36,0,0,1-2.14-1.71A22.88,22.88,0,0,0,13.19,19a2.73,2.73,0,0,0,.63-1.08,4.48,4.48,0,0,0,.12-1,10,10,0,0,0,1.32.72V24A8.1,8.1,0,0,1,12.72,23.22Z"/><path d="M81.22,14.7l1.35-1.32.37.34a6.1,6.1,0,0,0-1,1,2.3,2.3,0,0,0-.32.77,8.83,8.83,0,0,0-.08,1.57v5.8a2.94,2.94,0,0,0,.22,1.4c.14.23.28.34.41.34s.29-.17.74-.51l.29.37-2.84,2.27A6.26,6.26,0,0,1,79,25.47,2.93,2.93,0,0,1,78.56,24V16.13L77.19,15l-1.62,1.46V23.7l1.07,1.14-2.52,1.92-2.53-1.92,1-1.13V17.32a2.77,2.77,0,0,0-.21-1.39,3.41,3.41,0,0,0-1.11-1l-1.62,1.37V23.7l1.08,1.13-2.52,1.93-2.57-1.92,1.09-1.14V16.87a2.88,2.88,0,0,0-.36-1.53c-.15-.24-.29-.35-.42-.35a2.33,2.33,0,0,0-.94.52l-.28-.42,3-2.46a8.81,8.81,0,0,1,1.19,1,2.39,2.39,0,0,1,.53.81,3.37,3.37,0,0,1,.16,1.22l3.64-3A9.27,9.27,0,0,1,75,14.27a2.77,2.77,0,0,1,.53,1.55L79,12.63Z"/><path d="M112.9,9.88c.67.86,1.46,1.79,2.21,1.79,1.27,0,3-2,3-2l-.23-.29c-1.18,1.07-2.12-.77-2.76-1.37Z"/><path d="M118.07,24.13c-.45.34-.56.51-.74.51s-.27-.12-.42-.35a2.91,2.91,0,0,1-.25-1.4V15.76l1.06-1-2.55-2.11-2.53,2.11,1.06,1V24a2.93,2.93,0,0,0,.47,1.47,6.26,6.26,0,0,0,1.35,1.29l2.84-2.27Z"/></g></g></svg>