<svg width="497" height="497" version="1.1" xmlns="http://www.w3.org/2000/svg" desc="Created with imagetracer.js version 0.2.1" ><path fill="rgb(218,206,207)" stroke="rgb(218,206,207)" stroke-width="1" opacity="1" d="M 254.5 65 L 253 67.5 L 252.5 69 L 252 67.5 L 254.5 65 Z " /><path fill="rgb(218,206,207)" stroke="rgb(218,206,207)" stroke-width="1" opacity="1" d="M 258.5 65 L 259.5 67 L 258.5 65 Z " /><path fill="rgb(218,206,207)" stroke="rgb(218,206,207)" stroke-width="1" opacity="1" d="M 260.5 68 L 261.5 70 L 260.5 68 Z " /><path fill="rgb(218,206,207)" stroke="rgb(218,206,207)" stroke-width="1" opacity="1" d="M 263.5 73 L 264.5 75 L 263.5 73 Z " /><path fill="rgb(218,206,207)" stroke="rgb(218,206,207)" stroke-width="1" opacity="1" d="M 268.5 82 L 269.5 84 L 268.5 82 Z " /><path fill="rgb(218,206,207)" stroke="rgb(218,206,207)" stroke-width="1" opacity="1" d="M 239.5 97 L 238.5 99 L 239.5 97 Z " /><path fill="rgb(218,206,207)" stroke="rgb(218,206,207)" stroke-width="1" opacity="1" d="M 251.5 100 L 250.5 102 L 251.5 100 Z " /><path fill="rgb(218,206,207)" stroke="rgb(218,206,207)" stroke-width="1" opacity="1" d="M 235.5 104 L 234.5 106 L 235.5 104 Z " /><path fill="rgb(218,206,207)" stroke="rgb(218,206,207)" stroke-width="1" opacity="1" d="M 247.5 107 L 246.5 109 L 247.5 107 Z " /><path fill="rgb(218,206,207)" stroke="rgb(218,206,207)" stroke-width="1" opacity="1" d="M 232.5 109 L 231.5 111 L 232.5 109 Z " /><path fill="rgb(218,206,207)" stroke="rgb(218,206,207)" stroke-width="1" opacity="1" d="M 243.5 114 L 242.5 116 L 243.5 114 Z " /><path fill="rgb(218,206,207)" stroke="rgb(218,206,207)" stroke-width="1" opacity="1" d="M 227.5 118 L 226.5 120 L 227.5 118 Z " /><path fill="rgb(218,206,207)" stroke="rgb(218,206,207)" stroke-width="1" opacity="1" d="M 239.5 121 L 238.5 123 L 239.5 121 Z " /><path fill="rgb(218,206,207)" stroke="rgb(218,206,207)" stroke-width="1" opacity="1" d="M 272.5 126 L 273 139.5 L 272 139.5 L 272.5 126 Z " /><path fill="rgb(218,206,207)" stroke="rgb(218,206,207)" stroke-width="1" opacity="1" d="M 284.5 127 L 285 138.5 L 284 138.5 L 284.5 127 Z " /><path fill="rgb(218,206,207)" stroke="rgb(218,206,207)" stroke-width="1" opacity="1" d="M 220.5 133 L 221 136.5 L 220 136.5 L 220.5 133 Z " /><path fill="rgb(218,206,207)" stroke="rgb(218,206,207)" stroke-width="1" opacity="1" d="M 220.5 141 L 221 143.5 L 220 143.5 L 220.5 141 Z " /><path fill="rgb(218,206,207)" stroke="rgb(218,206,207)" stroke-width="1" opacity="1" d="M 234.5 147 L 238.5 152 L 234.5 147 Z " /><path fill="rgb(218,206,207)" stroke="rgb(218,206,207)" stroke-width="1" opacity="1" d="M 269.5 147 L 264.5 153 L 269.5 147 Z " /><path fill="rgb(218,206,207)" stroke="rgb(218,206,207)" stroke-width="1" opacity="1" d="M 224.5 153 L 225.5 155 L 224.5 153 Z " /><path fill="rgb(218,206,207)" stroke="rgb(218,206,207)" stroke-width="1" opacity="1" d="M 250.5 155 L 255 155.5 L 250.5 156 L 250.5 155 Z " /><path fill="rgb(218,206,207)" stroke="rgb(218,206,207)" stroke-width="1" opacity="1" d="M 278.5 155 L 273.5 161 L 278.5 155 Z " /><path fill="rgb(218,206,207)" stroke="rgb(218,206,207)" stroke-width="1" opacity="1" d="M 226.5 156 L 230.5 161 L 226.5 156 Z " /><path fill="rgb(218,206,207)" stroke="rgb(218,206,207)" stroke-width="1" opacity="1" d="M 232.5 161 L 233.5 163 L 232.5 161 Z " /><path fill="rgb(218,206,207)" stroke="rgb(218,206,207)" stroke-width="1" opacity="1" d="M 271.5 161 L 270.5 163 L 271.5 161 Z " /><path fill="rgb(218,206,207)" stroke="rgb(218,206,207)" stroke-width="1" opacity="1" d="M 226.5 165 L 234 165.5 L 226.5 166 L 226.5 165 Z " /><path fill="rgb(218,206,207)" stroke="rgb(218,206,207)" stroke-width="1" opacity="1" d="M 270.5 165 L 279 165.5 L 270.5 166 L 270.5 165 Z " /><path fill="rgb(218,206,207)" stroke="rgb(218,206,207)" stroke-width="1" opacity="1" d="M 215.5 166 L 220 166.5 L 215.5 167 L 215.5 166 Z " /><path fill="rgb(218,206,207)" stroke="rgb(218,206,207)" stroke-width="1" opacity="1" d="M 285.5 166 L 290 166.5 L 285.5 167 L 285.5 166 Z " /><path fill="rgb(218,206,207)" stroke="rgb(218,206,207)" stroke-width="1" opacity="1" d="M 207.5 167 L 211 167.5 L 207.5 168 L 207.5 167 Z " /><path fill="rgb(218,206,207)" stroke="rgb(218,206,207)" stroke-width="1" opacity="1" d="M 294.5 167 L 297 167.5 L 294.5 168 L 294.5 167 Z " /><path fill="rgb(218,206,207)" stroke="rgb(218,206,207)" stroke-width="1" opacity="1" d="M 201.5 168 L 204 168.5 L 201.5 169 L 201.5 168 Z " /><path fill="rgb(218,206,207)" stroke="rgb(218,206,207)" stroke-width="1" opacity="1" d="M 300.5 168 L 303 168.5 L 300.5 169 L 300.5 168 Z " /><path fill="rgb(218,206,207)" stroke="rgb(218,206,207)" stroke-width="1" opacity="1" d="M 196.5 169 L 199 169.5 L 196.5 170 L 196.5 169 Z " /><path fill="rgb(218,206,207)" stroke="rgb(218,206,207)" stroke-width="1" opacity="1" d="M 233.5 176 L 247 176 L 247 188.5 L 246 188.5 L 246 177 L 233.5 177 L 233.5 176 Z " /><path fill="rgb(218,206,207)" stroke="rgb(218,206,207)" stroke-width="1" opacity="1" d="M 258 176 L 273 176.5 L 259 177 L 258.5 188 L 258 176 Z " /><path fill="rgb(218,206,207)" stroke="rgb(218,206,207)" stroke-width="1" opacity="1" d="M 220.5 177 L 225 177.5 L 220.5 178 L 220.5 177 Z " /><path fill="rgb(218,206,207)" stroke="rgb(218,206,207)" stroke-width="1" opacity="1" d="M 280.5 177 L 285 177.5 L 280.5 178 L 280.5 177 Z " /><path fill="rgb(218,206,207)" stroke="rgb(218,206,207)" stroke-width="1" opacity="1" d="M 212.5 178 L 216 178.5 L 212.5 179 L 212.5 178 Z " /><path fill="rgb(218,206,207)" stroke="rgb(218,206,207)" stroke-width="1" opacity="1" d="M 289.5 178 L 292 178.5 L 289.5 179 L 289.5 178 Z " /><path fill="rgb(218,206,207)" stroke="rgb(218,206,207)" stroke-width="1" opacity="1" d="M 332.5 178 L 333.5 180 L 332.5 178 Z " /><path fill="rgb(218,206,207)" stroke="rgb(218,206,207)" stroke-width="1" opacity="1" d="M 170.5 179 L 164.5 186 L 170.5 179 Z " /><path fill="rgb(218,206,207)" stroke="rgb(218,206,207)" stroke-width="1" opacity="1" d="M 295.5 179 L 298 179.5 L 295.5 180 L 295.5 179 Z " /><path fill="rgb(218,206,207)" stroke="rgb(218,206,207)" stroke-width="1" opacity="1" d="M 335.5 180 L 339.5 185 L 335.5 180 Z " /><path fill="rgb(218,206,207)" stroke="rgb(218,206,207)" stroke-width="1" opacity="1" d="M 179.5 189 L 178.5 191 L 179.5 189 Z " /><path fill="rgb(218,206,207)" stroke="rgb(218,206,207)" stroke-width="1" opacity="1" d="M 325.5 189 L 326.5 191 L 325.5 189 Z " /><path fill="rgb(218,206,207)" stroke="rgb(218,206,207)" stroke-width="1" opacity="1" d="M 247.5 190 L 251 192.5 L 249.5 193 L 247.5 190 Z " /><path fill="rgb(218,206,207)" stroke="rgb(218,206,207)" stroke-width="1" opacity="1" d="M 257.5 190 L 256.5 192 L 257.5 190 Z " /><path fill="rgb(218,206,207)" stroke="rgb(218,206,207)" stroke-width="1" opacity="1" d="M 176.5 191 L 175.5 193 L 176.5 191 Z " /><path fill="rgb(218,206,207)" stroke="rgb(218,206,207)" stroke-width="1" opacity="1" d="M 328.5 191 L 329.5 193 L 328.5 191 Z " /><path fill="rgb(218,206,207)" stroke="rgb(218,206,207)" stroke-width="1" opacity="1" d="M 305.5 202 L 308 202.5 L 305.5 203 L 305.5 202 Z " /><path fill="rgb(218,206,207)" stroke="rgb(218,206,207)" stroke-width="1" opacity="1" d="M 300.5 203 L 303 203.5 L 300.5 204 L 300.5 203 Z " /><path fill="rgb(218,206,207)" stroke="rgb(218,206,207)" stroke-width="1" opacity="1" d="M 207.5 204 L 210 204.5 L 207.5 205 L 207.5 204 Z " /><path fill="rgb(218,206,207)" stroke="rgb(218,206,207)" stroke-width="1" opacity="1" d="M 294.5 204 L 297 204.5 L 294.5 205 L 294.5 204 Z " /><path fill="rgb(218,206,207)" stroke="rgb(218,206,207)" stroke-width="1" opacity="1" d="M 214.5 205 L 217 205.5 L 214.5 206 L 214.5 205 Z " /><path fill="rgb(218,206,207)" stroke="rgb(218,206,207)" stroke-width="1" opacity="1" d="M 288.5 205 L 291 205.5 L 288.5 206 L 288.5 205 Z " /><path fill="rgb(218,206,207)" stroke="rgb(218,206,207)" stroke-width="1" opacity="1" d="M 221.5 206 L 226 206.5 L 221.5 207 L 221.5 206 Z " /><path fill="rgb(218,206,207)" stroke="rgb(218,206,207)" stroke-width="1" opacity="1" d="M 279.5 206 L 283 206.5 L 279.5 207 L 279.5 206 Z " /><path fill="rgb(218,206,207)" stroke="rgb(218,206,207)" stroke-width="1" opacity="1" d="M 231.5 207 L 238 207.5 L 231.5 208 L 231.5 207 Z " /><path fill="rgb(218,206,207)" stroke="rgb(218,206,207)" stroke-width="1" opacity="1" d="M 267.5 207 L 273 207.5 L 267.5 208 L 267.5 207 Z " /><path fill="rgb(218,206,207)" stroke="rgb(218,206,207)" stroke-width="1" opacity="1" d="M 249.5 208 L 255 208.5 L 249.5 209 L 249.5 208 Z " /><path fill="rgb(218,206,207)" stroke="rgb(218,206,207)" stroke-width="1" opacity="1" d="M 165.5 310 L 170.5 316 L 165.5 310 Z " /><path fill="rgb(218,206,207)" stroke="rgb(218,206,207)" stroke-width="1" opacity="1" d="M 339.5 310 L 335.5 315 L 339.5 310 Z " /><path fill="rgb(218,206,207)" stroke="rgb(218,206,207)" stroke-width="1" opacity="1" d="M 333.5 315 L 332.5 317 L 333.5 315 Z " /><path fill="rgb(218,206,207)" stroke="rgb(218,206,207)" stroke-width="1" opacity="1" d="M 172.5 316 L 173.5 318 L 172.5 316 Z " /><path fill="rgb(218,206,207)" stroke="rgb(218,206,207)" stroke-width="1" opacity="1" d="M 199.5 326 L 202 326.5 L 199.5 327 L 199.5 326 Z " /><path fill="rgb(218,206,207)" stroke="rgb(218,206,207)" stroke-width="1" opacity="1" d="M 303.5 326 L 306 326.5 L 303.5 327 L 303.5 326 Z " /><path fill="rgb(218,206,207)" stroke="rgb(218,206,207)" stroke-width="1" opacity="1" d="M 205.5 327 L 208 327.5 L 205.5 328 L 205.5 327 Z " /><path fill="rgb(218,206,207)" stroke="rgb(218,206,207)" stroke-width="1" opacity="1" d="M 297.5 327 L 300 327.5 L 297.5 328 L 297.5 327 Z " /><path fill="rgb(218,206,207)" stroke="rgb(218,206,207)" stroke-width="1" opacity="1" d="M 211.5 328 L 215 328.5 L 211.5 329 L 211.5 328 Z " /><path fill="rgb(218,206,207)" stroke="rgb(218,206,207)" stroke-width="1" opacity="1" d="M 290.5 328 L 294 328.5 L 290.5 329 L 290.5 328 Z " /><path fill="rgb(218,206,207)" stroke="rgb(218,206,207)" stroke-width="1" opacity="1" d="M 220.5 329 L 226 329.5 L 220.5 330 L 220.5 329 Z " /><path fill="rgb(218,206,207)" stroke="rgb(218,206,207)" stroke-width="1" opacity="1" d="M 279.5 329 L 285 329.5 L 279.5 330 L 279.5 329 Z " /><path fill="rgb(218,206,207)" stroke="rgb(218,206,207)" stroke-width="1" opacity="1" d="M 235.5 330 L 270 330.5 L 235.5 331 L 235.5 330 Z " /><path fill="rgb(218,206,207)" stroke="rgb(218,206,207)" stroke-width="1" opacity="1" d="M 172.5 353 L 160.5 366 L 172.5 353 Z " /><path fill="rgb(218,206,207)" stroke="rgb(218,206,207)" stroke-width="1" opacity="1" d="M 91.5 354 L 94 354.5 L 91.5 355 L 91.5 354 Z " /><path fill="rgb(218,206,207)" stroke="rgb(218,206,207)" stroke-width="1" opacity="1" d="M 111.5 354 L 115 354.5 L 111.5 355 L 111.5 354 Z " /><path fill="rgb(218,206,207)" stroke="rgb(218,206,207)" stroke-width="1" opacity="1" d="M 199.5 354 L 203 354.5 L 199.5 355 L 199.5 354 Z " /><path fill="rgb(218,206,207)" stroke="rgb(218,206,207)" stroke-width="1" opacity="1" d="M 219.5 354 L 222 354.5 L 219.5 355 L 219.5 354 Z " /><path fill="rgb(218,206,207)" stroke="rgb(218,206,207)" stroke-width="1" opacity="1" d="M 78.5 358 L 77.5 360 L 78.5 358 Z " /><path fill="rgb(218,206,207)" stroke="rgb(218,206,207)" stroke-width="1" opacity="1" d="M 128.5 359 L 129.5 361 L 128.5 359 Z " /><path fill="rgb(218,206,207)" stroke="rgb(218,206,207)" stroke-width="1" opacity="1" d="M 185.5 359 L 184.5 361 L 185.5 359 Z " /><path fill="rgb(218,206,207)" stroke="rgb(218,206,207)" stroke-width="1" opacity="1" d="M 236.5 359 L 237.5 361 L 236.5 359 Z " /><path fill="rgb(218,206,207)" stroke="rgb(218,206,207)" stroke-width="1" opacity="1" d="M 182.5 361 L 178.5 366 L 182.5 361 Z " /><path fill="rgb(218,206,207)" stroke="rgb(218,206,207)" stroke-width="1" opacity="1" d="M 239.5 361 L 242.5 365 L 239.5 361 Z " /><path fill="rgb(218,206,207)" stroke="rgb(218,206,207)" stroke-width="1" opacity="1" d="M 133.5 364 L 134.5 366 L 133.5 364 Z " /><path fill="rgb(218,206,207)" stroke="rgb(218,206,207)" stroke-width="1" opacity="1" d="M 97.5 365 L 106 365.5 L 97.5 366 L 97.5 365 Z " /><path fill="rgb(218,206,207)" stroke="rgb(218,206,207)" stroke-width="1" opacity="1" d="M 208.5 366 L 214 366.5 L 208.5 367 L 208.5 366 Z " /><path fill="rgb(218,206,207)" stroke="rgb(218,206,207)" stroke-width="1" opacity="1" d="M 177.5 367 L 176.5 369 L 177.5 367 Z " /><path fill="rgb(218,206,207)" stroke="rgb(218,206,207)" stroke-width="1" opacity="1" d="M 244.5 367 L 245.5 369 L 244.5 367 Z " /><path fill="rgb(218,206,207)" stroke="rgb(218,206,207)" stroke-width="1" opacity="1" d="M 199.5 369 L 198.5 371 L 199.5 369 Z " /><path fill="rgb(218,206,207)" stroke="rgb(218,206,207)" stroke-width="1" opacity="1" d="M 222.5 369 L 223.5 371 L 222.5 369 Z " /><path fill="rgb(218,206,207)" stroke="rgb(218,206,207)" stroke-width="1" opacity="1" d="M 289.5 370 L 295 370.5 L 289.5 371 L 289.5 370 Z " /><path fill="rgb(218,206,207)" stroke="rgb(218,206,207)" stroke-width="1" opacity="1" d="M 325.5 370 L 329 370.5 L 325.5 371 L 325.5 370 Z " /><path fill="rgb(218,206,207)" stroke="rgb(218,206,207)" stroke-width="1" opacity="1" d="M 338.5 370 L 342 370.5 L 338.5 371 L 338.5 370 Z " /><path fill="rgb(218,206,207)" stroke="rgb(218,206,207)" stroke-width="1" opacity="1" d="M 395.5 370 L 399 370.5 L 395.5 371 L 395.5 370 Z " /><path fill="rgb(218,206,207)" stroke="rgb(218,206,207)" stroke-width="1" opacity="1" d="M 408.5 370 L 412 370.5 L 408.5 371 L 408.5 370 Z " /><path fill="rgb(218,206,207)" stroke="rgb(218,206,207)" stroke-width="1" opacity="1" d="M 256.5 372 L 257 421 L 273 421.5 L 257.5 422 L 256 420.5 L 256.5 372 Z " /><path fill="rgb(218,206,207)" stroke="rgb(218,206,207)" stroke-width="1" opacity="1" d="M 272.5 372 L 273.5 380 L 275 379.5 L 272 381 L 272.5 372 Z " /><path fill="rgb(218,206,207)" stroke="rgb(218,206,207)" stroke-width="1" opacity="1" d="M 195.5 373 L 194.5 375 L 195.5 373 Z " /><path fill="rgb(218,206,207)" stroke="rgb(218,206,207)" stroke-width="1" opacity="1" d="M 226.5 373 L 227.5 375 L 226.5 373 Z " /><path fill="rgb(218,206,207)" stroke="rgb(218,206,207)" stroke-width="1" opacity="1" d="M 280.5 373 L 279.5 375 L 280.5 373 Z " /><path fill="rgb(218,206,207)" stroke="rgb(218,206,207)" stroke-width="1" opacity="1" d="M 353.5 374 L 354.5 376 L 353.5 374 Z " /><path fill="rgb(218,206,207)" stroke="rgb(218,206,207)" stroke-width="1" opacity="1" d="M 424.5 374 L 425.5 376 L 424.5 374 Z " /><path fill="rgb(218,206,207)" stroke="rgb(218,206,207)" stroke-width="1" opacity="1" d="M 89.5 375 L 91.5 378 L 89.5 375 Z " /><path fill="rgb(218,206,207)" stroke="rgb(218,206,207)" stroke-width="1" opacity="1" d="M 311.5 375 L 310.5 377 L 311.5 375 Z " /><path fill="rgb(218,206,207)" stroke="rgb(218,206,207)" stroke-width="1" opacity="1" d="M 356.5 376 L 359.5 380 L 356.5 376 Z " /><path fill="rgb(218,206,207)" stroke="rgb(218,206,207)" stroke-width="1" opacity="1" d="M 379.5 376 L 376.5 380 L 379.5 376 Z " /><path fill="rgb(218,206,207)" stroke="rgb(218,206,207)" stroke-width="1" opacity="1" d="M 427.5 376 L 431.5 381 L 427.5 376 Z " /><path fill="rgb(218,206,207)" stroke="rgb(218,206,207)" stroke-width="1" opacity="1" d="M 172.5 378 L 173 380.5 L 172 380.5 L 172.5 378 Z " /><path fill="rgb(218,206,207)" stroke="rgb(218,206,207)" stroke-width="1" opacity="1" d="M 98.5 379 L 101 379.5 L 98.5 380 L 98.5 379 Z " /><path fill="rgb(218,206,207)" stroke="rgb(218,206,207)" stroke-width="1" opacity="1" d="M 229.5 379 L 230.5 380 L 249 380.5 L 229 381 L 229.5 379 Z " /><path fill="rgb(218,206,207)" stroke="rgb(218,206,207)" stroke-width="1" opacity="1" d="M 104.5 380 L 107 380.5 L 104.5 381 L 104.5 380 Z " /><path fill="rgb(218,206,207)" stroke="rgb(218,206,207)" stroke-width="1" opacity="1" d="M 306.5 380 L 304.5 383 L 306.5 380 Z " /><path fill="rgb(218,206,207)" stroke="rgb(218,206,207)" stroke-width="1" opacity="1" d="M 330.5 380 L 337 380.5 L 330.5 381 L 330.5 380 Z " /><path fill="rgb(218,206,207)" stroke="rgb(218,206,207)" stroke-width="1" opacity="1" d="M 110.5 381 L 114 381.5 L 110.5 382 L 110.5 381 Z " /><path fill="rgb(218,206,207)" stroke="rgb(218,206,207)" stroke-width="1" opacity="1" d="M 191.5 381 L 192 383.5 L 191 383.5 L 191.5 381 Z " /><path fill="rgb(218,206,207)" stroke="rgb(218,206,207)" stroke-width="1" opacity="1" d="M 360.5 381 L 361.5 383 L 360.5 381 Z " /><path fill="rgb(218,206,207)" stroke="rgb(218,206,207)" stroke-width="1" opacity="1" d="M 117.5 382 L 120 382.5 L 117.5 383 L 117.5 382 Z " /><path fill="rgb(218,206,207)" stroke="rgb(218,206,207)" stroke-width="1" opacity="1" d="M 324.5 382 L 323.5 384 L 324.5 382 Z " /><path fill="rgb(218,206,207)" stroke="rgb(218,206,207)" stroke-width="1" opacity="1" d="M 342.5 382 L 343.5 384 L 342.5 382 Z " /><path fill="rgb(218,206,207)" stroke="rgb(218,206,207)" stroke-width="1" opacity="1" d="M 411.5 383 L 414 384.5 L 412.5 384 L 411.5 383 Z " /><path fill="rgb(218,206,207)" stroke="rgb(218,206,207)" stroke-width="1" opacity="1" d="M 393.5 384 L 390.5 388 L 393.5 384 Z " /><path fill="rgb(218,206,207)" stroke="rgb(218,206,207)" stroke-width="1" opacity="1" d="M 73.5 385 L 74.5 387 L 73.5 385 Z " /><path fill="rgb(218,206,207)" stroke="rgb(218,206,207)" stroke-width="1" opacity="1" d="M 283.5 385 L 286 385.5 L 283.5 386 L 283.5 385 Z " /><path fill="rgb(218,206,207)" stroke="rgb(218,206,207)" stroke-width="1" opacity="1" d="M 292.5 385 L 295 385.5 L 292.5 386 L 292.5 385 Z " /><path fill="rgb(218,206,207)" stroke="rgb(218,206,207)" stroke-width="1" opacity="1" d="M 321.5 385 L 320 387.5 L 319.5 389 L 319 387.5 L 321.5 385 Z " /><path fill="rgb(218,206,207)" stroke="rgb(218,206,207)" stroke-width="1" opacity="1" d="M 346.5 386 L 347.5 388 L 346.5 386 Z " /><path fill="rgb(218,206,207)" stroke="rgb(218,206,207)" stroke-width="1" opacity="1" d="M 171.5 387 L 172 389.5 L 171 389.5 L 171.5 387 Z " /><path fill="rgb(218,206,207)" stroke="rgb(218,206,207)" stroke-width="1" opacity="1" d="M 278.5 387 L 275.5 391 L 278.5 387 Z " /><path fill="rgb(218,206,207)" stroke="rgb(218,206,207)" stroke-width="1" opacity="1" d="M 416.5 387 L 417.5 389 L 416.5 387 Z " /><path fill="rgb(218,206,207)" stroke="rgb(218,206,207)" stroke-width="1" opacity="1" d="M 364.5 389 L 365 391.5 L 364 391.5 L 364.5 389 Z " /><path fill="rgb(218,206,207)" stroke="rgb(218,206,207)" stroke-width="1" opacity="1" d="M 371.5 390 L 372 392.5 L 371 392.5 L 371.5 390 Z " /><path fill="rgb(218,206,207)" stroke="rgb(218,206,207)" stroke-width="1" opacity="1" d="M 301.5 391 L 302 401.5 L 301 401.5 L 301.5 391 Z " /><path fill="rgb(218,206,207)" stroke="rgb(218,206,207)" stroke-width="1" opacity="1" d="M 94.5 393 L 97 393.5 L 94.5 394 L 94.5 393 Z " /><path fill="rgb(218,206,207)" stroke="rgb(218,206,207)" stroke-width="1" opacity="1" d="M 191.5 393 L 192 395.5 L 191 395.5 L 191.5 393 Z " /><path fill="rgb(218,206,207)" stroke="rgb(218,206,207)" stroke-width="1" opacity="1" d="M 100.5 394 L 103 394.5 L 100.5 395 L 100.5 394 Z " /><path fill="rgb(218,206,207)" stroke="rgb(218,206,207)" stroke-width="1" opacity="1" d="M 107.5 395 L 110 395.5 L 107.5 396 L 107.5 395 Z " /><path fill="rgb(218,206,207)" stroke="rgb(218,206,207)" stroke-width="1" opacity="1" d="M 365.5 395 L 366 400.5 L 365 400.5 L 365.5 395 Z " /><path fill="rgb(218,206,207)" stroke="rgb(218,206,207)" stroke-width="1" opacity="1" d="M 139.5 397 L 140 404.5 L 139 404.5 L 139.5 397 Z " /><path fill="rgb(218,206,207)" stroke="rgb(218,206,207)" stroke-width="1" opacity="1" d="M 69.5 400 L 89 400.5 L 69.5 401 L 69.5 400 Z " /><path fill="rgb(218,206,207)" stroke="rgb(218,206,207)" stroke-width="1" opacity="1" d="M 371.5 400 L 372 402.5 L 371 402.5 L 371.5 400 Z " /><path fill="rgb(218,206,207)" stroke="rgb(218,206,207)" stroke-width="1" opacity="1" d="M 119.5 401 L 120 403.5 L 119 403.5 L 119.5 401 Z " /><path fill="rgb(218,206,207)" stroke="rgb(218,206,207)" stroke-width="1" opacity="1" d="M 318.5 401 L 319 403.5 L 318 403.5 L 318.5 401 Z " /><path fill="rgb(218,206,207)" stroke="rgb(218,206,207)" stroke-width="1" opacity="1" d="M 194.5 402 L 199.5 408 L 194.5 402 Z " /><path fill="rgb(218,206,207)" stroke="rgb(218,206,207)" stroke-width="1" opacity="1" d="M 227.5 402 L 222.5 408 L 227.5 402 Z " /><path fill="rgb(218,206,207)" stroke="rgb(218,206,207)" stroke-width="1" opacity="1" d="M 389.5 403 L 391 405.5 L 389 404.5 L 389.5 403 Z " /><path fill="rgb(218,206,207)" stroke="rgb(218,206,207)" stroke-width="1" opacity="1" d="M 417.5 404 L 416.5 406 L 417.5 404 Z " /><path fill="rgb(218,206,207)" stroke="rgb(218,206,207)" stroke-width="1" opacity="1" d="M 246.5 405 L 247 406.5 L 245 407.5 L 246.5 405 Z " /><path fill="rgb(218,206,207)" stroke="rgb(218,206,207)" stroke-width="1" opacity="1" d="M 319.5 405 L 320.5 407 L 319.5 405 Z " /><path fill="rgb(218,206,207)" stroke="rgb(218,206,207)" stroke-width="1" opacity="1" d="M 118.5 406 L 116.5 409 L 118.5 406 Z " /><path fill="rgb(218,206,207)" stroke="rgb(218,206,207)" stroke-width="1" opacity="1" d="M 347.5 406 L 365 406.5 L 347.5 407 L 343.5 411 L 347.5 406 Z " /><path fill="rgb(218,206,207)" stroke="rgb(218,206,207)" stroke-width="1" opacity="1" d="M 176.5 408 L 177.5 410 L 176.5 408 Z " /><path fill="rgb(218,206,207)" stroke="rgb(218,206,207)" stroke-width="1" opacity="1" d="M 393.5 408 L 394.5 410 L 393.5 408 Z " /><path fill="rgb(218,206,207)" stroke="rgb(218,206,207)" stroke-width="1" opacity="1" d="M 244.5 409 L 242.5 412 L 244.5 409 Z " /><path fill="rgb(218,206,207)" stroke="rgb(218,206,207)" stroke-width="1" opacity="1" d="M 323.5 409 L 324.5 411 L 323.5 409 Z " /><path fill="rgb(218,206,207)" stroke="rgb(218,206,207)" stroke-width="1" opacity="1" d="M 433.5 409 L 433 410.5 L 426.5 418 L 432 411.5 L 433.5 409 Z " /><path fill="rgb(218,206,207)" stroke="rgb(218,206,207)" stroke-width="1" opacity="1" d="M 98.5 410 L 102 410.5 L 98.5 411 L 98.5 410 Z " /><path fill="rgb(218,206,207)" stroke="rgb(218,206,207)" stroke-width="1" opacity="1" d="M 109.5 410 L 112 410.5 L 109.5 411 L 109.5 410 Z " /><path fill="rgb(218,206,207)" stroke="rgb(218,206,207)" stroke-width="1" opacity="1" d="M 209.5 410 L 213 410.5 L 209.5 411 L 209.5 410 Z " /><path fill="rgb(218,206,207)" stroke="rgb(218,206,207)" stroke-width="1" opacity="1" d="M 304.5 410 L 305.5 412 L 304.5 410 Z " /><path fill="rgb(218,206,207)" stroke="rgb(218,206,207)" stroke-width="1" opacity="1" d="M 401.5 411 L 406 411.5 L 401.5 412 L 401.5 411 Z " /><path fill="rgb(218,206,207)" stroke="rgb(218,206,207)" stroke-width="1" opacity="1" d="M 179.5 412 L 181.5 415 L 179.5 412 Z " /><path fill="rgb(218,206,207)" stroke="rgb(218,206,207)" stroke-width="1" opacity="1" d="M 329.5 412 L 339 412.5 L 329.5 413 L 329.5 412 Z " /><path fill="rgb(218,206,207)" stroke="rgb(218,206,207)" stroke-width="1" opacity="1" d="M 361.5 412 L 357.5 417 L 361.5 412 Z " /><path fill="rgb(218,206,207)" stroke="rgb(218,206,207)" stroke-width="1" opacity="1" d="M 375.5 412 L 379.5 417 L 375.5 412 Z " /><path fill="rgb(218,206,207)" stroke="rgb(218,206,207)" stroke-width="1" opacity="1" d="M 135.5 413 L 132.5 417 L 135.5 413 Z " /><path fill="rgb(218,206,207)" stroke="rgb(218,206,207)" stroke-width="1" opacity="1" d="M 306.5 413 L 309.5 417 L 306.5 413 Z " /><path fill="rgb(218,206,207)" stroke="rgb(218,206,207)" stroke-width="1" opacity="1" d="M 239.5 414 L 237.5 417 L 239.5 414 Z " /><path fill="rgb(218,206,207)" stroke="rgb(218,206,207)" stroke-width="1" opacity="1" d="M 184.5 416 L 185.5 418 L 184.5 416 Z " /><path fill="rgb(218,206,207)" stroke="rgb(218,206,207)" stroke-width="1" opacity="1" d="M 311.5 417 L 312.5 419 L 311.5 417 Z " /><path fill="rgb(218,206,207)" stroke="rgb(218,206,207)" stroke-width="1" opacity="1" d="M 355.5 417 L 354.5 419 L 355.5 417 Z " /><path fill="rgb(218,206,207)" stroke="rgb(218,206,207)" stroke-width="1" opacity="1" d="M 381.5 417 L 382.5 419 L 381.5 417 Z " /><path fill="rgb(218,206,207)" stroke="rgb(218,206,207)" stroke-width="1" opacity="1" d="M 92.5 422 L 97 422.5 L 92.5 423 L 92.5 422 Z " /><path fill="rgb(218,206,207)" stroke="rgb(218,206,207)" stroke-width="1" opacity="1" d="M 113.5 422 L 117 422.5 L 113.5 423 L 113.5 422 Z " /><path fill="rgb(218,206,207)" stroke="rgb(218,206,207)" stroke-width="1" opacity="1" d="M 200.5 422 L 204 422.5 L 200.5 423 L 200.5 422 Z " /><path fill="rgb(218,206,207)" stroke="rgb(218,206,207)" stroke-width="1" opacity="1" d="M 217.5 422 L 221 422.5 L 217.5 423 L 217.5 422 Z " /><path fill="rgb(218,206,207)" stroke="rgb(218,206,207)" stroke-width="1" opacity="1" d="M 324.5 422 L 328 422.5 L 324.5 423 L 324.5 422 Z " /><path fill="rgb(218,206,207)" stroke="rgb(218,206,207)" stroke-width="1" opacity="1" d="M 340.5 422 L 343 422.5 L 340.5 423 L 340.5 422 Z " /><path fill="rgb(218,206,207)" stroke="rgb(218,206,207)" stroke-width="1" opacity="1" d="M 394.5 422 L 397 422.5 L 394.5 423 L 394.5 422 Z " /><path fill="rgb(218,206,207)" stroke="rgb(218,206,207)" stroke-width="1" opacity="1" d="M 410.5 422 L 414 422.5 L 410.5 423 L 410.5 422 Z " /><path fill="rgb(254,254,254)" stroke="rgb(254,254,254)" stroke-width="1" opacity="0.996078431372549" d="M 76.5 359 L 73.5 363 L 76.5 359 Z " /><path fill="rgb(254,254,254)" stroke="rgb(254,254,254)" stroke-width="1" opacity="0.996078431372549" d="M 131.5 361 L 132.5 363 L 131.5 361 Z " /><path fill="rgb(254,254,254)" stroke="rgb(254,254,254)" stroke-width="1" opacity="0.996078431372549" d="M 91.5 368 L 90.5 370 L 91.5 368 Z " /><path fill="rgb(254,254,254)" stroke="rgb(254,254,254)" stroke-width="1" opacity="0.996078431372549" d="M 113.5 368 L 114.5 370 L 113.5 368 Z " /><path fill="rgb(254,254,254)" stroke="rgb(254,254,254)" stroke-width="1" opacity="0.996078431372549" d="M 197.5 371 L 196.5 373 L 197.5 371 Z " /><path fill="rgb(254,254,254)" stroke="rgb(254,254,254)" stroke-width="1" opacity="0.996078431372549" d="M 224.5 371 L 225.5 373 L 224.5 371 Z " /><path fill="rgb(254,254,254)" stroke="rgb(254,254,254)" stroke-width="1" opacity="0.996078431372549" d="M 146.5 372 L 147 421 L 163 421.5 L 147.5 422 L 146 420.5 L 146.5 372 Z " /><path fill="rgb(254,254,254)" stroke="rgb(254,254,254)" stroke-width="1" opacity="0.996078431372549" d="M 276.5 376 L 275.5 378 L 276.5 376 Z " /><path fill="rgb(254,254,254)" stroke="rgb(254,254,254)" stroke-width="1" opacity="0.996078431372549" d="M 414.5 385 L 415.5 387 L 414.5 385 Z " /><path fill="rgb(254,254,254)" stroke="rgb(254,254,254)" stroke-width="1" opacity="0.996078431372549" d="M 133.5 387 L 136.5 391 L 133.5 387 Z " /><path fill="rgb(254,254,254)" stroke="rgb(254,254,254)" stroke-width="1" opacity="0.996078431372549" d="M 68.5 400 L 69 402.5 L 68 402.5 L 68.5 400 Z " /><path fill="rgb(254,254,254)" stroke="rgb(254,254,254)" stroke-width="1" opacity="0.996078431372549" d="M 90.5 405 L 92.5 408 L 90.5 405 Z " /><path fill="rgb(254,254,254)" stroke="rgb(254,254,254)" stroke-width="1" opacity="0.996078431372549" d="M 391.5 406 L 392.5 408 L 391.5 406 Z " /><path fill="rgb(254,254,254)" stroke="rgb(254,254,254)" stroke-width="1" opacity="0.996078431372549" d="M 72.5 413 L 75.5 417 L 72.5 413 Z " /><path fill="rgb(254,255,254)" stroke="rgb(254,255,254)" stroke-width="1" opacity="0.5411764705882353" d="M 1.5 0 L 378 0.5 L 1.5 1 L 1.5 0 Z " /><path fill="rgb(254,255,254)" stroke="rgb(254,255,254)" stroke-width="1" opacity="0.5411764705882353" d="M 384.5 1 L 388 1.5 L 384.5 2 L 384.5 1 Z " /><path fill="rgb(254,255,254)" stroke="rgb(254,255,254)" stroke-width="1" opacity="0.5411764705882353" d="M 445.5 25 L 446.5 27 L 445.5 25 Z " /><path fill="rgb(254,255,254)" stroke="rgb(254,255,254)" stroke-width="1" opacity="0.5411764705882353" d="M 450.5 29 L 452.5 32 L 450.5 29 Z " /><path fill="rgb(254,255,254)" stroke="rgb(254,255,254)" stroke-width="1" opacity="0.5411764705882353" d="M 465.5 44 L 467.5 47 L 465.5 44 Z " /><path fill="rgb(254,255,254)" stroke="rgb(254,255,254)" stroke-width="1" opacity="0.5411764705882353" d="M 470.5 50 L 471.5 52 L 470.5 50 Z " /><path fill="rgb(254,255,254)" stroke="rgb(254,255,254)" stroke-width="1" opacity="0.5411764705882353" d="M 495.5 110 L 496 113.5 L 495 113.5 L 495.5 110 Z " /><path fill="rgb(254,255,254)" stroke="rgb(254,255,254)" stroke-width="1" opacity="0.5411764705882353" d="M 496.5 120 L 497 495.5 L 496 495.5 L 496.5 120 Z " /><path fill="rgb(254,255,254)" stroke="rgb(254,255,254)" stroke-width="1" opacity="0.5411764705882353" d="M 1.5 379 L 2 383.5 L 1 383.5 L 1.5 379 Z " /><path fill="rgb(254,255,254)" stroke="rgb(254,255,254)" stroke-width="1" opacity="0.5411764705882353" d="M 2.5 388 L 3 390.5 L 2 390.5 L 2.5 388 Z " /><path fill="rgb(254,255,254)" stroke="rgb(254,255,254)" stroke-width="1" opacity="0.5411764705882353" d="M 19.5 435 L 20.5 437 L 19.5 435 Z " /><path fill="rgb(254,255,254)" stroke="rgb(254,255,254)" stroke-width="1" opacity="0.5411764705882353" d="M 21.5 438 L 22.5 440 L 21.5 438 Z " /><path fill="rgb(254,255,254)" stroke="rgb(254,255,254)" stroke-width="1" opacity="0.5411764705882353" d="M 23.5 441 L 24.5 443 L 23.5 441 Z " /><path fill="rgb(254,255,254)" stroke="rgb(254,255,254)" stroke-width="1" opacity="0.5411764705882353" d="M 26.5 445 L 27.5 447 L 26.5 445 Z " /><path fill="rgb(254,255,254)" stroke="rgb(254,255,254)" stroke-width="1" opacity="0.5411764705882353" d="M 29.5 449 L 31.5 452 L 29.5 449 Z " /><path fill="rgb(254,255,254)" stroke="rgb(254,255,254)" stroke-width="1" opacity="0.5411764705882353" d="M 45.5 465 L 47.5 468 L 45.5 465 Z " /><path fill="rgb(254,255,254)" stroke="rgb(254,255,254)" stroke-width="1" opacity="0.5411764705882353" d="M 50.5 469 L 51.5 471 L 50.5 469 Z " /><path fill="rgb(254,255,254)" stroke="rgb(254,255,254)" stroke-width="1" opacity="0.5411764705882353" d="M 54.5 472 L 55.5 474 L 54.5 472 Z " /><path fill="rgb(254,255,254)" stroke="rgb(254,255,254)" stroke-width="1" opacity="0.5411764705882353" d="M 57.5 474 L 58.5 476 L 57.5 474 Z " /><path fill="rgb(254,255,254)" stroke="rgb(254,255,254)" stroke-width="1" opacity="0.5411764705882353" d="M 60.5 476 L 61.5 478 L 60.5 476 Z " /><path fill="rgb(254,255,254)" stroke="rgb(254,255,254)" stroke-width="1" opacity="0.5411764705882353" d="M 107.5 494 L 110 494.5 L 107.5 495 L 107.5 494 Z " /><path fill="rgb(254,255,254)" stroke="rgb(254,255,254)" stroke-width="1" opacity="0.5411764705882353" d="M 115.5 495 L 121 495.5 L 115.5 496 L 115.5 495 Z " /><path fill="rgb(255,255,255)" stroke="rgb(255,255,255)" stroke-width="1" opacity="1" d="M 1 1 L 383.5 1 L 407.5 6 L 434.5 18 Q 451.9 28.6 465 43.5 Q 477.7 57.8 486 76.5 L 492 93.5 L 496 114.5 L 496 496 L 121.5 496 L 120.5 495 L 110.5 495 L 95.5 492 L 67.5 481 Q 46.9 469.6 32 452.5 Q 18.5 437 10 416.5 L 3 393.5 L 2 379.5 L 1 378.5 L 1 1 Z M 255 65 L 252 68 L 249 79 L 240 97 Q 228 113 220 134 L 220 145 L 226 157 Q 230 162 237 165 L 215 166 L 214 167 L 197 169 Q 182 172 171 179 L 163 188 L 163 308 L 164 310 L 174 318 L 188 324 L 205 328 L 220 329 L 221 330 L 234 330 L 235 331 L 271 331 L 272 330 L 285 330 L 286 329 L 301 328 L 321 323 L 335 316 L 342 307 L 342 188 L 341 186 Q 332 175 317 171 L 298 167 L 267 165 L 273 162 L 282 151 L 285 140 L 284 121 L 278 101 L 261 68 Q 260 64 255 65 Z M 152 353 L 145 366 L 161 366 L 173 354 L 152 353 Z M 91 354 L 77 359 L 70 369 Q 68 379 72 385 Q 76 390 84 392 L 112 396 L 117 398 Q 120 399 119 406 L 116 409 L 108 411 L 95 409 L 89 403 L 89 400 L 68 400 L 69 408 L 72 414 L 81 420 L 92 423 L 118 423 L 132 418 Q 138 414 140 406 Q 141 395 137 391 L 128 384 L 93 378 L 89 374 L 90 371 L 97 366 Q 106 365 112 367 L 117 374 L 118 375 L 137 375 L 137 370 L 133 363 Q 127 356 116 354 L 91 354 Z M 200 354 Q 189 356 183 361 Q 176 366 173 375 L 172 387 L 171 388 L 172 399 L 178 412 Q 185 421 200 423 L 222 423 L 227 422 Q 236 419 242 414 L 247 407 L 249 401 Q 249 396 249 396 L 229 396 L 228 402 Q 224 408 216 410 Q 206 411 201 408 Q 193 403 191 393 L 191 385 L 194 376 Q 198 369 206 367 Q 216 365 222 369 Q 227 372 229 379 L 230 381 L 249 381 Q 249 371 244 366 Q 238 358 227 355 L 223 354 L 200 354 Z M 290 370 L 285 371 L 277 376 L 274 380 L 273 372 L 256 372 L 256 421 L 258 422 L 273 422 L 273 398 L 275 392 Q 279 386 287 385 L 292 385 L 298 387 L 298 371 Q 296 369 290 370 Z M 325 370 Q 315 372 309 377 Q 303 382 301 392 L 301 402 L 306 414 L 313 419 L 325 423 Q 347 426 358 417 Q 362 414 364 408 L 365 406 L 348 406 L 340 412 Q 328 414 323 409 L 319 405 L 320 401 L 366 401 Q 367 387 360 380 Q 350 367 325 370 Z M 395 370 L 387 372 L 380 376 Q 373 381 371 391 Q 369 406 375 413 Q 381 421 394 423 L 414 423 L 427 418 Q 434 414 436 405 L 436 389 L 432 381 Q 427 373 418 371 L 413 370 L 395 370 Z M 146 372 L 146 421 L 148 422 L 163 422 L 163 372 L 146 372 Z " /><path fill="rgb(255,255,255)" stroke="rgb(255,255,255)" stroke-width="1" opacity="1" d="M 257 89 Q 259.7 87.9 259 90.5 L 264 99.5 L 270 115.5 L 272 124.5 L 272 141.5 Q 270.2 148.7 264.5 152 Q 259 156.5 247.5 155 Q 239 153.5 235 147.5 L 232 140.5 L 232 136.5 L 257 89 Z " /><path fill="rgb(255,255,255)" stroke="rgb(255,255,255)" stroke-width="1" opacity="1" d="M 226.5 177 L 246 177 L 246 188.5 L 249.5 193 Q 256.5 194.5 258 190.5 L 259 177 L 279.5 177 L 280.5 178 L 288.5 178 L 299.5 180 L 316.5 185 L 330 193.5 L 328.5 196 L 304.5 203 L 287.5 205 L 286.5 206 L 266.5 207 L 265.5 208 L 239.5 208 L 238.5 207 L 226.5 207 L 225.5 206 L 218.5 206 L 195.5 202 L 181.5 198 L 175 194.5 L 177.5 191 L 197.5 182 L 226.5 177 Z " /><path fill="rgb(255,255,255)" stroke="rgb(255,255,255)" stroke-width="1" opacity="1" d="M 328.5 381 Q 340.3 379.5 345 384 L 348 391 L 319.5 391 L 319 389.5 L 324.5 383 L 328.5 381 Z " /><path fill="rgb(255,255,255)" stroke="rgb(255,255,255)" stroke-width="1" opacity="1" d="M 399.5 382 Q 412.8 380.8 417 388.5 Q 420 392.5 419 400.5 L 414.5 408 Q 409.7 412.7 398.5 411 Q 392.4 409.6 390 404.5 L 388 394.5 Q 389.1 387.1 394.5 384 L 399.5 382 Z " /><path fill="rgb(35,34,32)" stroke="rgb(35,34,32)" stroke-width="1" opacity="1" d="M 255.5 65 Q 259.5 64.5 260 67.5 Q 274 88 282 114.5 L 284 123.5 L 284 142.5 Q 281.3 154.8 272.5 161 L 266 164.5 L 270.5 166 L 293.5 167 L 314.5 171 L 331.5 178 L 340 185.5 L 342 189.5 L 342 304.5 Q 340.2 311.7 334.5 315 Q 326.7 321.2 315.5 324 L 289.5 329 L 279.5 329 L 278.5 330 L 226.5 330 L 225.5 329 L 208.5 328 L 189.5 324 L 174.5 318 L 165 309.5 L 163 305.5 L 163 188.5 L 171.5 179 Q 181.4 172.9 194.5 170 L 211.5 167 L 219.5 167 L 220.5 166 L 233.5 166 L 238 164.5 Q 230.4 161.6 226 155.5 Q 220.5 149 220 137.5 L 222 128.5 L 240 97.5 L 249 79.5 L 252 69.5 L 255.5 65 Z M 257 88 L 252 100 L 232 135 Q 231 143 234 148 L 239 152 L 251 156 Q 259 156 265 153 Q 271 149 273 140 L 273 127 L 270 114 Q 266 100 259 90 Q 260 87 257 88 Z M 234 176 L 233 177 L 213 178 L 199 181 Q 186 184 177 191 Q 174 192 175 196 L 190 201 L 208 205 L 221 206 L 222 207 L 231 207 L 232 208 L 249 208 L 250 209 L 291 206 L 316 201 L 329 196 Q 331 197 330 193 L 326 189 L 310 182 L 292 178 L 274 177 L 273 176 L 258 176 L 258 190 L 254 193 Q 249 193 247 190 L 247 176 L 234 176 Z M 175 209 L 175 303 L 181 307 L 196 313 L 216 317 L 240 318 L 241 319 L 265 319 L 266 318 L 281 318 L 282 317 L 296 316 L 316 311 L 329 304 L 330 303 L 330 209 L 299 217 L 285 218 L 284 219 L 273 219 L 272 220 L 234 220 L 233 219 L 222 219 L 221 218 L 214 218 L 197 215 L 175 209 Z " /><path fill="rgb(35,34,32)" stroke="rgb(35,34,32)" stroke-width="1" opacity="1" d="M 203.5 354 L 218.5 354 L 228.5 356 Q 238.4 359.1 244 366.5 L 249 380 L 230.5 380 L 229 378.5 Q 228.2 371.4 222.5 369 L 218.5 367 L 208.5 366 L 199.5 369 L 194 374.5 Q 188.9 381.4 191 395.5 Q 193.2 403.9 199.5 408 L 212.5 411 L 222.5 408 L 228 402.5 L 230 396 L 248.5 396 L 249 398.5 Q 246.7 408.2 240.5 414 L 227.5 421 L 216.5 423 L 204.5 423 L 190.5 420 Q 182.8 416.8 178 410.5 Q 173.5 404.5 172 395.5 L 172 381.5 Q 174.3 367.8 183.5 361 L 190.5 357 L 203.5 354 Z " /><path fill="rgb(35,34,32)" stroke="rgb(35,34,32)" stroke-width="1" opacity="1" d="M 329.5 370 L 337.5 370 L 348.5 372 L 360 380.5 Q 365.9 387.8 365 401 L 318.5 401 L 318 403.5 L 324.5 411 Q 329.2 414.3 338.5 413 Q 344.6 411.6 347.5 407 L 363.5 407 L 363 408.5 Q 361.6 414.6 356.5 417 L 345.5 422 L 328.5 423 L 315.5 420 L 306 412.5 Q 299.8 405.2 302 389.5 Q 303.7 381.2 309.5 377 L 316.5 373 L 329.5 370 Z M 331 380 L 325 382 Q 319 384 318 391 L 349 391 L 348 388 Q 344 379 331 380 Z " /><path fill="rgb(35,34,32)" stroke="rgb(35,34,32)" stroke-width="1" opacity="1" d="M 399.5 370 L 407.5 370 L 421.5 373 L 432 381.5 L 436 391.5 L 436 401.5 Q 434.1 413.1 425.5 418 L 415.5 422 L 397.5 423 L 383.5 419 L 375 411.5 Q 370.6 404.9 371 393.5 L 375 381.5 L 380.5 376 L 388.5 372 L 399.5 370 Z M 398 382 L 394 384 L 388 392 Q 387 400 389 405 L 395 410 L 402 412 L 411 411 L 416 408 L 419 402 L 419 391 L 418 389 Q 414 379 398 382 Z " /><path fill="rgb(35,34,32)" stroke="rgb(35,34,32)" stroke-width="1" opacity="1" d="M 286.5 371 L 298 371 L 298 386 Q 293.1 383.9 283.5 385 Q 277.8 386.3 275 390.5 L 273 395.5 L 273 421 L 257.5 421 L 257 420.5 L 257 372 L 272 372 L 272 380.5 L 273.5 381 L 278.5 375 L 286.5 371 Z " /><path fill="rgb(225,6,20)" stroke="rgb(225,6,20)" stroke-width="1" opacity="1" d="M 175 209 L 196.5 215 L 213.5 218 L 220.5 218 L 221.5 219 L 232.5 219 L 233.5 220 L 271.5 220 L 272.5 219 L 283.5 219 L 284.5 218 L 298.5 217 L 330 209 L 330 302.5 L 328.5 304 L 315.5 311 L 295.5 316 L 281.5 317 L 280.5 318 L 265.5 318 L 264.5 319 L 240.5 319 L 239.5 318 L 215.5 317 L 195.5 313 L 180.5 307 L 175 302.5 L 175 209 Z " /><path fill="rgb(225,6,20)" stroke="rgb(225,6,20)" stroke-width="1" opacity="1" d="M 153.5 353 L 172 353.5 L 159.5 366 L 146 366 L 153.5 353 Z " /><path fill="rgb(225,6,20)" stroke="rgb(225,6,20)" stroke-width="1" opacity="1" d="M 94.5 354 L 117.5 355 Q 127.2 357.3 133 363.5 Q 137 367.8 137 375 L 117.5 375 L 117 372.5 L 112.5 367 L 105.5 365 L 97.5 365 Q 91.8 366.3 89 370.5 Q 87.8 376.8 91.5 378 L 125.5 384 Q 132.9 386.1 137 391.5 Q 140.8 396.2 139 406.5 Q 136.9 414.4 130.5 418 L 119.5 422 L 97.5 423 L 82.5 420 Q 75.8 417.8 72 412.5 Q 68.3 408.3 69 401 L 88.5 401 L 89 404.5 Q 94.4 413.6 111.5 411 L 119 406.5 L 120 401.5 L 117.5 398 L 109.5 395 L 85.5 392 Q 76.6 389.9 72 383.5 Q 68.9 379.1 70 370.5 Q 71.5 363.6 76.5 360 L 81.5 357 L 94.5 354 Z " /><path fill="rgb(225,6,20)" stroke="rgb(225,6,20)" stroke-width="1" opacity="1" d="M 147 372 L 162.5 372 L 163 372.5 L 163 421 L 147.5 421 L 147 420.5 L 147 372 Z " /><path fill="rgb(255,255,255)" stroke="rgb(255,255,255)" stroke-width="1" opacity="0.12549019607843137" d="M 378.5 0 L 381 0.5 L 378.5 1 L 378.5 0 Z " /><path fill="rgb(255,255,255)" stroke="rgb(255,255,255)" stroke-width="1" opacity="0.12549019607843137" d="M 0.5 1 L 1 373.5 L 0 373.5 L 0.5 1 Z " /><path fill="rgb(255,255,255)" stroke="rgb(255,255,255)" stroke-width="1" opacity="0.12549019607843137" d="M 440.5 21 L 441.5 23 L 440.5 21 Z " /><path fill="rgb(255,255,255)" stroke="rgb(255,255,255)" stroke-width="1" opacity="0.12549019607843137" d="M 448.5 27 L 449.5 29 L 448.5 27 Z " /><path fill="rgb(255,255,255)" stroke="rgb(255,255,255)" stroke-width="1" opacity="0.12549019607843137" d="M 454.5 32 L 464.5 43 L 454.5 32 Z " /><path fill="rgb(255,255,255)" stroke="rgb(255,255,255)" stroke-width="1" opacity="0.12549019607843137" d="M 468.5 47 L 469.5 49 L 468.5 47 Z " /><path fill="rgb(255,255,255)" stroke="rgb(255,255,255)" stroke-width="1" opacity="0.12549019607843137" d="M 496.5 117 L 497 119.5 L 496 119.5 L 496.5 117 Z " /><path fill="rgb(255,255,255)" stroke="rgb(255,255,255)" stroke-width="1" opacity="0.12549019607843137" d="M 24.5 443 L 25.5 445 L 24.5 443 Z " /><path fill="rgb(255,255,255)" stroke="rgb(255,255,255)" stroke-width="1" opacity="0.12549019607843137" d="M 27.5 447 L 28.5 449 L 27.5 447 Z " /><path fill="rgb(255,255,255)" stroke="rgb(255,255,255)" stroke-width="1" opacity="0.12549019607843137" d="M 32.5 453 L 43.5 465 L 32.5 453 Z " /><path fill="rgb(255,255,255)" stroke="rgb(255,255,255)" stroke-width="1" opacity="0.12549019607843137" d="M 48.5 468 L 49.5 470 L 48.5 468 Z " /><path fill="rgb(255,255,255)" stroke="rgb(255,255,255)" stroke-width="1" opacity="0.12549019607843137" d="M 52.5 471 L 53.5 473 L 52.5 471 Z " /><path fill="rgb(0,0,0)" stroke="rgb(0,0,0)" stroke-width="1" opacity="0" d="M 382.5 0 L 497 0 L 497 115.5 L 496 115.5 L 496 108.5 L 492 90.5 L 482 66.5 Q 470.7 45.8 453.5 31 Q 440 19 422.5 11 L 403.5 4 L 389.5 1 L 382.5 1 L 382.5 0 Z " /><path fill="rgb(0,0,0)" stroke="rgb(0,0,0)" stroke-width="1" opacity="0" d="M 0.5 374 L 3 396.5 L 13 425.5 Q 25.3 449.3 44.5 466 Q 59.3 478.7 78.5 487 L 92.5 492 L 112.5 496 L 497 496.5 L 0 497 L 0.5 374 Z " /></svg>